<svg width="512" height="512" viewBox="0 0 512 512" fill="none" xmlns="http://www.w3.org/2000/svg">
<path d="M396 399.463L224.621 487L116 224.389L357.379 25L396 56.6105V399.463Z" fill="black"/>
<path fill-rule="evenodd" clip-rule="evenodd" d="M363.509 288.68C360.27 293.572 357.814 299.592 351.237 299.592C340.163 299.592 339.568 282.534 328.485 282.534C317.408 282.534 318.01 299.592 306.939 299.592C295.863 299.592 295.27 282.534 284.187 282.534C273.111 282.534 273.711 299.592 262.641 299.592C251.565 299.592 250.972 282.534 239.895 282.534C228.813 282.534 229.413 299.592 218.345 299.592C214.862 299.592 212.42 297.907 210.357 295.597C202.435 281.822 197.876 265.678 197.876 248.416C197.876 197.889 236.943 156.928 285.133 156.928C333.325 156.928 372.391 197.889 372.391 248.418C372.391 262.863 369.198 276.532 363.509 288.68Z" fill="#FB70A9"/>
<path fill-rule="evenodd" clip-rule="evenodd" d="M250.286 279.649V317.547C250.286 324.345 244.767 329.857 237.963 329.857C236.345 329.858 234.743 329.541 233.248 328.922C231.753 328.304 230.394 327.398 229.25 326.254C228.105 325.111 227.198 323.753 226.578 322.259C225.958 320.765 225.64 319.163 225.639 317.545V271.799C227.938 267.581 230.563 263.93 235.303 263.93C243.01 263.93 245.707 273.61 250.286 279.65V279.649ZM296.836 281.627V341.553C296.836 343.35 296.481 345.13 295.793 346.79C295.105 348.45 294.097 349.958 292.826 351.228C291.555 352.499 290.046 353.506 288.385 354.194C286.725 354.881 284.945 355.235 283.148 355.234C275.587 355.234 269.454 349.108 269.454 341.553V273.725C272.034 268.755 274.69 263.928 280.137 263.928C288.764 263.928 291.11 276.036 296.838 281.627H296.836ZM340.658 280.523V324.03C340.658 330.83 335.14 336.342 328.336 336.342C321.53 336.342 316.011 330.83 316.011 324.03V270.557C318.152 266.887 320.707 263.928 324.979 263.928C333.071 263.928 335.637 274.595 340.658 280.523Z" fill="#4E56A6"/>
<path fill-rule="evenodd" clip-rule="evenodd" d="M250.286 291.267C248.098 288.588 245.511 286.602 241.77 286.602C232.882 286.602 231.248 297.797 225.639 302.839V254.571C225.64 252.953 225.958 251.351 226.578 249.857C227.197 248.363 228.105 247.005 229.249 245.862C230.394 244.718 231.752 243.812 233.247 243.194C234.741 242.575 236.343 242.258 237.961 242.259C244.767 242.259 250.286 247.771 250.286 254.571V291.267ZM296.836 292.128C294.505 289.026 291.782 286.604 287.647 286.604C277.76 286.604 276.852 300.455 269.454 304.289V282.939C269.454 275.382 275.587 269.258 283.148 269.258C284.946 269.257 286.725 269.611 288.386 270.298C290.047 270.985 291.556 271.993 292.827 273.263C294.098 274.533 295.106 276.042 295.795 277.702C296.483 279.362 296.837 281.142 296.838 282.939L296.836 292.128ZM340.658 289.732C338.758 287.864 336.511 286.604 333.527 286.604C323.947 286.604 322.797 299.606 316.011 303.896V260.571C316.011 257.303 317.309 254.168 319.62 251.857C321.931 249.546 325.066 248.248 328.334 248.248C331.603 248.248 334.737 249.546 337.048 251.857C339.359 254.168 340.658 257.303 340.658 260.571V289.732Z" fill="black" fill-opacity="0.298039"/>
<path fill-rule="evenodd" clip-rule="evenodd" d="M363.509 288.68C360.27 293.572 357.814 299.592 351.237 299.592C340.163 299.592 339.568 282.534 328.485 282.534C317.408 282.534 318.01 299.592 306.939 299.592C295.863 299.592 295.27 282.534 284.187 282.534C273.111 282.534 273.711 299.592 262.641 299.592C251.565 299.592 250.972 282.534 239.895 282.534C228.813 282.534 229.413 299.592 218.345 299.592C214.862 299.592 212.42 297.907 210.357 295.597C202.435 281.822 197.876 265.678 197.876 248.416C197.876 197.889 236.943 156.928 285.133 156.928C333.325 156.928 372.391 197.889 372.391 248.418C372.391 262.863 369.198 276.532 363.509 288.68Z" fill="#FB70A9"/>
<path fill-rule="evenodd" clip-rule="evenodd" d="M344.628 297.77C367.493 263.778 368.081 226.082 346.399 184.664C362.471 201.122 372.391 223.699 372.391 248.614C372.391 263.008 369.081 276.618 363.183 288.725C359.832 293.59 357.279 299.592 350.46 299.592C348.373 299.612 346.333 298.975 344.628 297.77Z" fill="#E24CA6"/>
<path fill-rule="evenodd" clip-rule="evenodd" d="M280.457 271.242C310.801 271.242 323.574 253.654 323.574 228.677C323.574 203.695 304.269 180.707 280.457 180.707C256.641 180.707 237.336 203.695 237.336 228.675C237.336 253.656 250.107 271.242 280.457 271.242Z" fill="white"/>
<path fill-rule="evenodd" clip-rule="evenodd" d="M285.029 212.257C285.029 222.104 277.787 230.093 268.859 230.093C259.924 230.093 252.689 222.106 252.689 212.257C252.689 202.41 259.924 194.422 268.859 194.422C277.787 194.422 285.029 202.408 285.029 212.257Z" fill="#030776"/>
<path fill-rule="evenodd" clip-rule="evenodd" d="M274.247 208.143C274.247 212.688 270.629 216.372 266.162 216.372C261.695 216.372 258.077 212.688 258.077 208.143C258.077 203.597 261.695 199.914 266.162 199.914C270.629 199.914 274.247 203.597 274.247 208.143Z" fill="white"/>
</svg>
